<?xml version="1.0" encoding="utf-8"?>
<!-- Generator: Adobe Illustrator 16.0.0, SVG Export Plug-In . SVG Version: 6.00 Build 0)  -->
<!DOCTYPE svg PUBLIC "-//W3C//DTD SVG 1.1//EN" "http://www.w3.org/Graphics/SVG/1.1/DTD/svg11.dtd">
<svg version="1.1" id="Layer_1" xmlns="http://www.w3.org/2000/svg" xmlns:xlink="http://www.w3.org/1999/xlink" x="0px" y="0px"
	 width="140.283px" height="92.126px" viewBox="0 0 140.283 92.126" enable-background="new 0 0 140.283 92.126"
	 xml:space="preserve">
<g>
	<g>
		<path fill="#B1C900" d="M0,86.657c0,3.008,2.551,5.469,5.669,5.469h6.535c3.118,0,3.881-1.755,1.696-3.901l-9.927-9.747
			C1.788,76.333,0,77.039,0,80.047V86.657z"/>
		<path fill="#B1C900" d="M140.283,5.469c0-3.008-2.553-5.469-5.672-5.469H5.669C2.552,0,0,2.461,0,5.469v54.004
			c0,3.008,1.788,7.224,3.973,9.37l19.74,19.382c2.185,2.146,6.524,3.901,9.642,3.901h101.255c3.119,0,5.672-2.461,5.672-5.469
			V5.469z"/>
	</g>
	<g>
		<path d="M43.246,51.621h11.585l10.243,22.584L64.99,51.621h7.345v30.308H61.002L50.55,58.38l0.084,23.549h-7.388V51.621z"/>
		<path d="M79.054,51.621h8.521v24.347h13.602v5.961H79.054V51.621z"/>
		<path d="M105.25,51.621h12.133c3.818,0,7.723,0,10.494,2.477c0.965,0.882,2.309,2.519,2.309,5.205
			c0,5.373-4.953,6.507-6.465,6.885v0.084c1.889,0.336,7.305,1.301,7.305,7.514c0,2.351-0.883,5.121-4.199,6.884
			c-2.393,1.26-5.457,1.26-8.186,1.26H105.25V51.621z M113.394,63.837h3.945c1.344,0,2.225,0,2.939-0.378
			c0.965-0.546,1.594-1.638,1.594-2.938c0-0.924-0.336-2.015-1.174-2.687c-0.924-0.714-1.848-0.714-2.729-0.714h-4.576V63.837z
			 M113.435,76.388h4.66c0.965,0,4.324,0,4.324-3.526c0-3.651-3.443-3.651-4.576-3.651h-4.408V76.388z"/>
	</g>
</g>
</svg>
